<svg width="32" height="32" viewBox="0 0 32 32" fill="none" xmlns="http://www.w3.org/2000/svg">
<path fill-rule="evenodd" clip-rule="evenodd" d="M2 7.64405C2 5.41037 3.81076 3.59961 6.04445 3.59961L17.4222 3.59961C17.4223 3.59961 17.4221 3.59961 17.4222 3.59961L20.2667 3.59961C22.5004 3.59961 24.3111 5.41037 24.3111 7.64405V7.86628L25.9556 7.86628C28.1892 7.86628 30 9.67704 30 11.9107V24.7107C30 26.9444 28.1892 28.7552 25.9556 28.7552H6.04444C3.81076 28.7552 2 26.9444 2 24.7107L2 7.64405ZM22.2594 26.3552H6.04444C5.13624 26.3552 4.4 25.6189 4.4 24.7107L4.4 7.64405C4.4 6.73585 5.13624 5.99961 6.04445 5.99961L20.2667 5.99961C21.1749 5.99961 21.9111 6.73585 21.9111 7.64405L21.9111 24.7107C21.9111 25.2963 22.0355 25.8527 22.2594 26.3552ZM24.3111 10.2663L24.3111 24.7107C24.3111 25.6189 25.0474 26.3552 25.9556 26.3552C26.8638 26.3552 27.6 25.6189 27.6 24.7107V11.9107C27.6 11.0025 26.8638 10.2663 25.9556 10.2663L24.3111 10.2663ZM7.68889 10.4885C7.68889 9.82576 8.22615 9.2885 8.88889 9.2885H17.4222C18.085 9.2885 18.6222 9.82576 18.6222 10.4885V16.1774C18.6222 16.8401 18.085 17.3774 17.4222 17.3774H8.88889C8.22615 17.3774 7.68889 16.8401 7.68889 16.1774V10.4885ZM10.0889 11.6885V14.9774H16.2222V11.6885H10.0889ZM7.68889 21.8663C7.68889 21.2035 8.22615 20.6663 8.88889 20.6663H17.4222C18.085 20.6663 18.6222 21.2035 18.6222 21.8663C18.6222 22.529 18.085 23.0663 17.4222 23.0663H8.88889C8.22615 23.0663 7.68889 22.529 7.68889 21.8663Z" fill="#3281FF"/>
</svg>
